<svg width="32" height="32" viewBox="0 0 32 32" fill="none" xmlns="http://www.w3.org/2000/svg">
<path fill-rule="evenodd" clip-rule="evenodd" d="M16 8C15.4477 8 15 8.44772 15 9C15 9.55228 15.4477 10 16 10C16.5523 10 17 9.55228 17 9C17 8.44772 16.5523 8 16 8ZM13 9C13 7.34315 14.3431 6 16 6C17.6569 6 19 7.34315 19 9C19 9.13177 18.9915 9.26156 18.975 9.38885C21.2451 10.0035 23.171 11.3232 24.2045 13.1066C24.4578 13.0371 24.7246 13 25 13C26.6569 13 28 14.3431 28 16C28 17.6569 26.6569 19 25 19C24.7246 19 24.4578 18.9629 24.2044 18.8934C23.1709 20.6765 21.246 21.9964 18.975 22.6112C18.9915 22.7385 19 22.8682 19 23C19 24.6569 17.6569 26 16 26C14.3431 26 13 24.6569 13 23C13 22.8682 13.0085 22.7384 13.025 22.6111C10.7565 21.9968 8.82884 20.6771 7.79554 18.8934C7.54218 18.9629 7.27542 19 7 19C5.34315 19 4 17.6569 4 16C4 14.3431 5.34315 13 7 13C7.27547 13 7.54228 13.0371 7.79568 13.1067C8.8291 11.3233 10.755 10.0035 13.025 9.38889C13.0085 9.26159 13 9.13179 13 9ZM9.44346 14.2591C9.79385 14.75 10 15.3509 10 16C10 16.6491 9.79387 17.25 9.44351 17.7409C10.1776 19.1289 11.8054 20.3122 13.9763 20.7853C14.5098 20.2975 15.2202 20 16 20C16.7798 20 17.4902 20.2976 18.0237 20.7853C20.1911 20.313 21.8229 19.13 22.5567 17.7411C22.2062 17.2502 22 16.6492 22 16C22 15.3509 22.2062 14.7499 22.5566 14.2589C21.8227 12.8704 20.1924 11.6873 18.0237 11.2147C17.4902 11.7025 16.7798 12 16 12C15.2202 12 14.5099 11.7025 13.9764 11.2147C11.8077 11.6873 10.1773 12.8705 9.44346 14.2591ZM15 23C15 22.4477 15.4477 22 16 22C16.5523 22 17 22.4477 17 23C17 23.5523 16.5523 24 16 24C15.4477 24 15 23.5523 15 23ZM25 15C24.4477 15 24 15.4477 24 16C24 16.5523 24.4477 17 25 17C25.5523 17 26 16.5523 26 16C26 15.4477 25.5523 15 25 15ZM6 16C6 15.4477 6.44772 15 7 15C7.55228 15 8 15.4477 8 16C8 16.5523 7.55228 17 7 17C6.44772 17 6 16.5523 6 16Z" fill="#000000"/>
</svg>
