<svg width="32" height="32" viewBox="0 0 32 32" fill="none" xmlns="http://www.w3.org/2000/svg">
<path fill-rule="evenodd" clip-rule="evenodd" d="M22 9C22 7.89543 22.8954 7 24 7C25.1046 7 26 7.89543 26 9C26 10.1046 25.1046 11 24 11C22.8954 11 22 10.1046 22 9ZM20.126 8H11.874C11.4299 6.27477 9.86384 5 8 5C5.79086 5 4 6.79086 4 9C4 10.8638 5.27477 12.4299 7 12.874L7 19.126C5.27477 19.5701 4 21.1362 4 23C4 25.2091 5.79086 27 8 27C9.86384 27 11.4299 25.7252 11.874 24H20.126C20.5701 25.7252 22.1362 27 24 27C26.2091 27 28 25.2091 28 23C28 21.1362 26.7252 19.5701 25 19.126V12.874C26.7252 12.4299 28 10.8638 28 9C28 6.79086 26.2091 5 24 5C22.1362 5 20.5701 6.27477 20.126 8ZM23 19.126V12.874C21.5944 12.5122 20.4878 11.4056 20.126 10H11.874C11.5122 11.4056 10.4056 12.5122 9 12.874L9 19.126C10.4056 19.4878 11.5122 20.5944 11.874 22H20.126C20.4878 20.5944 21.5944 19.4878 23 19.126ZM22 23C22 21.8954 22.8954 21 24 21C25.1046 21 26 21.8954 26 23C26 24.1046 25.1046 25 24 25C22.8954 25 22 24.1046 22 23ZM10 9C10 10.1046 9.10457 11 8 11C6.89543 11 6 10.1046 6 9C6 7.89543 6.89543 7 8 7C9.10457 7 10 7.89543 10 9ZM8 21C6.89543 21 6 21.8954 6 23C6 24.1046 6.89543 25 8 25C9.10457 25 10 24.1046 10 23C10 21.8954 9.10457 21 8 21Z" fill="#4364E8"/>
</svg>
