<svg width="32" height="32" viewBox="0 0 32 32" fill="none" xmlns="http://www.w3.org/2000/svg">
<path fill-rule="evenodd" clip-rule="evenodd" d="M5.00024 5C4.44796 5 4.00024 5.44772 4.00024 6C4.00024 6.55228 4.44796 7 5.00024 7H27.0007C27.553 7 28.0007 6.55228 28.0007 6C28.0007 5.44772 27.553 5 27.0007 5H5.00024ZM5 11C4.44772 11 4 11.4477 4 12C4 12.5523 4.44772 13 5 13H22.1707C22.5825 14.1652 23.6938 15 25 15C26.6569 15 28 13.6569 28 12C28 10.3431 26.6569 9 25 9C23.6938 9 22.5825 9.83481 22.1707 11H5ZM25 13C24.4477 13 24 12.5523 24 12C24 11.4477 24.4477 11 25 11C25.5523 11 26 11.4477 26 12C26 12.5523 25.5523 13 25 13ZM4 18C4 17.4477 4.44772 17 5 17H27.0005C27.5528 17 28.0005 17.4477 28.0005 18C28.0005 18.5523 27.5528 19 27.0005 19H5C4.44772 19 4 18.5523 4 18ZM8 23.9999C8 23.9999 8 24 8 24C8 24.5523 7.55229 25 7 25C6.44772 25 6 24.5523 6 24C6 23.4477 6.44772 23 7 23C7.55224 23 7.99992 23.4476 8 23.9999ZM9.82929 23C9.41746 21.8348 8.30622 21 7 21C5.34315 21 4 22.3431 4 24C4 25.6569 5.34315 27 7 27C8.30622 27 9.41746 26.1652 9.82929 25H27C27.5523 25 28 24.5523 28 24C28 23.4477 27.5523 23 27 23H9.82929Z" fill="#4364E8"/>
</svg>
